<svg width="36" height="36" viewBox="0 0 36 36" fill="none" xmlns="http://www.w3.org/2000/svg">
<path fill-rule="evenodd" clip-rule="evenodd" d="M18 35C27.3888 35 35 27.3888 35 18C35 8.61116 27.3888 1 18 1C8.61116 1 1 8.61116 1 18C1 27.3888 8.61116 35 18 35Z" stroke="#E5E5E5"/>
<path fill-rule="evenodd" clip-rule="evenodd" d="M16.2251 17.399C16.2251 17.399 17.9651 17.2748 17.9651 15.2875C17.9651 13.3056 16.5419 12.3334 14.7351 12.3334H8.79166V23.4312H14.7345C14.7345 23.4312 18.365 23.5394 18.365 20.1533C18.3653 20.1533 18.521 17.399 16.2251 17.399ZM18.8154 19.4189C18.8154 19.3971 18.8211 15.1577 23.2018 15.1577C27.8275 15.1577 27.177 19.9749 27.177 19.9749H21.2617C21.2617 22.0327 23.2686 21.9029 23.2686 21.9029C25.1698 21.9029 25.1033 20.7095 25.1033 20.7095H27.1102C27.1102 23.8795 23.2018 23.6636 23.2018 23.6636C18.5153 23.6636 18.8154 19.4189 18.8154 19.4189ZM23.2464 16.7832C21.4839 16.7832 21.2392 18.4897 21.2392 18.4897H24.9865C24.9865 18.4897 25.0143 16.7832 23.2464 16.7832ZM14.7348 14.3044H11.4104V16.7832H14.5291C15.0684 16.7832 15.541 16.6156 15.541 15.46C15.541 14.3044 14.7348 14.3044 14.7348 14.3044ZM14.5683 21.4601H11.4104V18.4897H14.7348C14.7348 18.4897 15.9414 18.479 15.9358 20.018C15.9358 21.3144 15.0409 21.4494 14.5683 21.4601ZM20.7445 14.3533V12.9868H25.4591V14.3533H20.7445Z" fill="#666666"/>
</svg>
