<svg width="36" height="36" viewBox="0 0 36 36" fill="none" xmlns="http://www.w3.org/2000/svg">
<path fill-rule="evenodd" clip-rule="evenodd" d="M18 35C27.3888 35 35 27.3888 35 18C35 8.61116 27.3888 1 18 1C8.61116 1 1 8.61116 1 18C1 27.3888 8.61116 35 18 35Z" stroke="#E5E5E5"/>
<path d="M22.8089 11.8004C21.7556 10.7738 20.298 10.2084 18.7046 10.2084C16.2706 10.2084 14.7736 11.2214 13.9464 12.0712C12.9269 13.1184 12.3423 14.5089 12.3423 15.8863C12.3423 17.6156 13.0547 18.943 14.2478 19.4368C14.3279 19.4701 14.4085 19.4869 14.4875 19.4869C14.7392 19.4869 14.9386 19.3197 15.0077 19.0514C15.048 18.8976 15.1413 18.5179 15.1818 18.3531C15.2687 18.0277 15.1985 17.8712 15.0091 17.6445C14.6641 17.23 14.5034 16.7398 14.5034 16.1018C14.5034 14.2069 15.8931 12.1929 18.4688 12.1929C20.5126 12.1929 21.7821 13.3723 21.7821 15.2708C21.7821 16.4688 21.528 17.5782 21.0663 18.3949C20.7455 18.9624 20.1815 19.6388 19.3155 19.6388C18.941 19.6388 18.6046 19.4827 18.3924 19.2104C18.1919 18.953 18.1258 18.6205 18.2064 18.2739C18.2975 17.8824 18.4217 17.474 18.542 17.0791C18.7612 16.358 18.9685 15.6769 18.9685 15.1335C18.9685 14.204 18.4057 13.5794 17.5682 13.5794C16.5038 13.5794 15.6699 14.6771 15.6699 16.0783C15.6699 16.7656 15.8498 17.2795 15.9312 17.4769C15.7971 18.0538 15.0002 21.4831 14.849 22.1298C14.7616 22.5073 14.2351 25.489 15.1066 25.7267C16.0858 25.9938 16.961 23.0899 17.0501 22.7618C17.1223 22.4949 17.3749 21.4858 17.5297 20.8655C18.0024 21.3278 18.7635 21.6403 19.5041 21.6403C20.9002 21.6403 22.1557 21.0024 23.0394 19.8443C23.8965 18.721 24.3686 17.1553 24.3686 15.436C24.3686 14.0918 23.8 12.7666 22.8089 11.8004Z" fill="#666666"/>
</svg>
