<svg width="36" height="36" viewBox="0 0 36 36" fill="none" xmlns="http://www.w3.org/2000/svg">
<path fill-rule="evenodd" clip-rule="evenodd" d="M18 35C27.3888 35 35 27.3888 35 18C35 8.61116 27.3888 1 18 1C8.61116 1 1 8.61116 1 18C1 27.3888 8.61116 35 18 35Z" fill="white" stroke="#E5E5E5"/>
<path d="M25.7917 13.1344C25.2185 13.3903 24.6019 13.5634 23.9553 13.6407C24.6155 13.2424 25.1222 12.6123 25.3613 11.8602C24.7435 12.2292 24.059 12.4968 23.3311 12.6411C22.7479 12.0158 21.9169 11.625 20.9968 11.625C19.2315 11.625 17.7997 13.0665 17.7997 14.8438C17.7997 15.0961 17.8281 15.3416 17.8829 15.5773C15.2259 15.4432 12.8699 14.1618 11.293 12.2138C11.0178 12.6891 10.86 13.2424 10.86 13.8322C10.86 14.9487 11.4248 15.9343 12.2822 16.5114C11.7584 16.4948 11.2651 16.35 10.8342 16.1083C10.834 16.122 10.834 16.1357 10.834 16.1491C10.834 17.7087 11.9365 19.0095 13.3988 19.305C13.1308 19.3789 12.8478 19.4181 12.5566 19.4181C12.3502 19.4181 12.1501 19.3981 11.9551 19.3607C12.3618 20.6392 13.5423 21.5698 14.9417 21.596C13.8473 22.4594 12.4689 22.9739 10.9706 22.9739C10.7131 22.9739 10.458 22.9587 10.2083 22.9287C11.6225 23.8423 13.3034 24.375 15.1088 24.375C20.9895 24.375 24.2054 19.4704 24.2054 15.2166C24.2054 15.0771 24.2023 14.9381 24.1961 14.8003C24.8213 14.3466 25.3632 13.7799 25.7917 13.1344V13.1344Z" fill="#666666"/>
</svg>
